<svg xmlns="http://www.w3.org/2000/svg" xmlns:xlink="http://www.w3.org/1999/xlink" width="512" zoomAndPan="magnify" viewBox="0 0 384 383.999986" height="512" preserveAspectRatio="xMidYMid meet" version="1.0"><defs><clipPath id="cfb7044d23"><path d="M 138.519531 251.617188 L 145.773438 251.617188 L 145.773438 255.367188 L 138.519531 255.367188 Z M 138.519531 251.617188 " clip-rule="nonzero"/></clipPath><clipPath id="647e7a8170"><path d="M 0.519531 0.617188 L 7.773438 0.617188 L 7.773438 4.367188 L 0.519531 4.367188 Z M 0.519531 0.617188 " clip-rule="nonzero"/></clipPath><clipPath id="4eba9e36f8"><rect x="0" width="8" y="0" height="5"/></clipPath><clipPath id="46ec1afcfd"><path d="M 163 65 L 335 65 L 335 245 L 163 245 Z M 163 65 " clip-rule="nonzero"/></clipPath><clipPath id="ba36bc63b0"><path d="M 49.769531 139.367188 L 217.125 42.242188 L 334.582031 244.628906 L 167.222656 341.753906 Z M 49.769531 139.367188 " clip-rule="nonzero"/></clipPath><clipPath id="6a4d3ee6a1"><path d="M 49.769531 139.367188 L 217.125 42.242188 L 334.582031 244.628906 L 167.222656 341.753906 Z M 49.769531 139.367188 " clip-rule="nonzero"/></clipPath><clipPath id="e90e81b0ec"><path d="M 49 139 L 221 139 L 221 319 L 49 319 Z M 49 139 " clip-rule="nonzero"/></clipPath><clipPath id="5cb7398efb"><path d="M 49.769531 139.367188 L 217.125 42.242188 L 334.582031 244.628906 L 167.222656 341.753906 Z M 49.769531 139.367188 " clip-rule="nonzero"/></clipPath><clipPath id="42cda3e8a4"><path d="M 49.769531 139.367188 L 217.125 42.242188 L 334.582031 244.628906 L 167.222656 341.753906 Z M 49.769531 139.367188 " clip-rule="nonzero"/></clipPath></defs><rect x="-38.4" width="460.8" fill="#ffffff" y="-38.399999" height="460.799983" fill-opacity="1"/><rect x="-38.4" width="460.8" fill="#0f0f0f" y="-38.399999" height="460.799983" fill-opacity="1"/><g clip-path="url(#cfb7044d23)"><g transform="matrix(1, 0, 0, 1, 138, 251)"><g clip-path="url(#4eba9e36f8)"><g clip-path="url(#647e7a8170)"><path fill="#e2e2e2" d="M 0.519531 0.617188 L 7.769531 0.617188 L 7.769531 4.367188 L 0.519531 4.367188 Z M 0.519531 0.617188 " fill-opacity="1" fill-rule="nonzero"/></g></g></g></g><g clip-path="url(#46ec1afcfd)"><g clip-path="url(#ba36bc63b0)"><g clip-path="url(#6a4d3ee6a1)"><path fill="#ffffff" d="M 272.417969 205.933594 L 163.003906 206.179688 L 185.496094 244.9375 L 334.195312 244.605469 L 230.269531 65.523438 L 200.839844 82.601562 L 272.417969 205.933594 " fill-opacity="1" fill-rule="nonzero"/></g></g></g><g clip-path="url(#e90e81b0ec)"><g clip-path="url(#5cb7398efb)"><g clip-path="url(#42cda3e8a4)"><path fill="#ffffff" d="M 49.769531 139.34375 L 153.699219 318.425781 L 183.125 301.347656 L 111.550781 178.011719 L 220.964844 177.769531 L 198.472656 139.011719 L 49.769531 139.34375 " fill-opacity="1" fill-rule="nonzero"/></g></g></g></svg>