<svg xmlns="http://www.w3.org/2000/svg" xmlns:xlink="http://www.w3.org/1999/xlink" width="512" zoomAndPan="magnify" viewBox="0 0 384 383.999986" height="512" preserveAspectRatio="xMidYMid meet" version="1.0"><defs><clipPath id="034e6dd4bd"><path d="M 86.398438 0 L 297.601562 0 C 320.515625 0 342.492188 9.101562 358.695312 25.304688 C 374.898438 41.507812 384 63.484375 384 86.398438 L 384 297.601562 C 384 345.316406 345.316406 384 297.601562 384 L 86.398438 384 C 38.683594 384 0 345.316406 0 297.601562 L 0 86.398438 C 0 38.683594 38.683594 0 86.398438 0 Z M 86.398438 0 " clip-rule="nonzero"/></clipPath><clipPath id="570b56c79e"><path d="M 0 0 L 384 0 L 384 384 L 0 384 Z M 0 0 " clip-rule="nonzero"/></clipPath><clipPath id="728a5174f2"><path d="M 86.398438 0 L 297.601562 0 C 320.515625 0 342.492188 9.101562 358.695312 25.304688 C 374.898438 41.507812 384 63.484375 384 86.398438 L 384 297.601562 C 384 345.316406 345.316406 384 297.601562 384 L 86.398438 384 C 38.683594 384 0 345.316406 0 297.601562 L 0 86.398438 C 0 38.683594 38.683594 0 86.398438 0 Z M 86.398438 0 " clip-rule="nonzero"/></clipPath><clipPath id="7f23cb9882"><rect x="0" width="384" y="0" height="384"/></clipPath><clipPath id="ac88ad1378"><path d="M 162 126.566406 L 222 126.566406 L 222 225 L 162 225 Z M 162 126.566406 " clip-rule="nonzero"/></clipPath><clipPath id="4fb6d5826e"><path d="M 139 189 L 245 189 L 245 282.566406 L 139 282.566406 Z M 139 189 " clip-rule="nonzero"/></clipPath><clipPath id="71a876bcf7"><path d="M 309 159 L 318.394531 159 L 318.394531 181 L 309 181 Z M 309 159 " clip-rule="nonzero"/></clipPath><clipPath id="b2368715bf"><path d="M 65.644531 159 L 75 159 L 75 181 L 65.644531 181 Z M 65.644531 159 " clip-rule="nonzero"/></clipPath></defs><g clip-path="url(#034e6dd4bd)"><g><g clip-path="url(#7f23cb9882)"><g clip-path="url(#570b56c79e)"><g clip-path="url(#728a5174f2)"><rect x="-84.48" width="552.96" fill="#0f0f0f" height="552.959979" y="-84.479997" fill-opacity="1"/></g></g></g></g></g><g clip-path="url(#ac88ad1378)"><path fill="#ffffff" d="M 192.007812 224.648438 C 208.40625 224.648438 221.699219 211.355469 221.699219 194.960938 L 221.699219 156.308594 C 221.699219 139.910156 208.40625 126.617188 192.007812 126.617188 C 175.613281 126.617188 162.320312 139.910156 162.320312 156.308594 L 162.320312 194.960938 C 162.320312 211.355469 175.613281 224.648438 192.007812 224.648438 " fill-opacity="1" fill-rule="nonzero"/></g><g clip-path="url(#4fb6d5826e)"><path fill="#ffffff" d="M 239.757812 189.679688 C 237.203125 189.679688 235.132812 191.75 235.132812 194.300781 C 235.132812 218.082031 215.789062 237.425781 192.007812 237.425781 C 168.230469 237.425781 148.886719 218.082031 148.886719 194.300781 C 148.886719 191.75 146.816406 189.679688 144.261719 189.679688 C 141.707031 189.679688 139.636719 191.75 139.636719 194.300781 C 139.636719 208.292969 145.085938 221.441406 154.976562 231.335938 C 163.769531 240.128906 175.140625 245.40625 187.386719 246.46875 L 187.386719 273.632812 L 168.097656 273.632812 C 165.542969 273.632812 163.472656 275.703125 163.472656 278.257812 C 163.472656 280.808594 165.542969 282.878906 168.097656 282.878906 L 215.921875 282.878906 C 218.476562 282.878906 220.546875 280.808594 220.546875 278.257812 C 220.546875 275.703125 218.476562 273.632812 215.921875 273.632812 L 196.632812 273.632812 L 196.632812 246.46875 C 208.875 245.40625 220.25 240.128906 229.039062 231.335938 C 238.933594 221.441406 244.378906 208.292969 244.378906 194.300781 C 244.378906 191.75 242.3125 189.679688 239.757812 189.679688 " fill-opacity="1" fill-rule="nonzero"/></g><path fill="#ffffff" d="M 239.757812 159.425781 C 237.203125 159.425781 235.132812 161.496094 235.132812 164.050781 L 235.132812 175.632812 C 235.132812 178.1875 237.203125 180.257812 239.757812 180.257812 C 242.3125 180.257812 244.378906 178.1875 244.378906 175.632812 L 244.378906 164.050781 C 244.378906 161.496094 242.3125 159.425781 239.757812 159.425781 " fill-opacity="1" fill-rule="nonzero"/><path fill="#ffffff" d="M 258.253906 150.019531 C 255.699219 150.019531 253.628906 152.089844 253.628906 154.644531 L 253.628906 185.042969 C 253.628906 187.59375 255.699219 189.664062 258.253906 189.664062 C 260.804688 189.664062 262.875 187.59375 262.875 185.042969 L 262.875 154.644531 C 262.875 152.089844 260.804688 150.019531 258.253906 150.019531 " fill-opacity="1" fill-rule="nonzero"/><path fill="#ffffff" d="M 276.75 129.949219 C 274.195312 129.949219 272.125 132.019531 272.125 134.574219 L 272.125 205.109375 C 272.125 207.664062 274.195312 209.734375 276.75 209.734375 C 279.300781 209.734375 281.371094 207.664062 281.371094 205.109375 L 281.371094 134.574219 C 281.371094 132.019531 279.300781 129.949219 276.75 129.949219 " fill-opacity="1" fill-rule="nonzero"/><path fill="#ffffff" d="M 295.242188 150.019531 C 292.691406 150.019531 290.621094 152.089844 290.621094 154.644531 L 290.621094 185.042969 C 290.621094 187.59375 292.691406 189.664062 295.242188 189.664062 C 297.796875 189.664062 299.867188 187.59375 299.867188 185.042969 L 299.867188 154.644531 C 299.867188 152.089844 297.796875 150.019531 295.242188 150.019531 " fill-opacity="1" fill-rule="nonzero"/><g clip-path="url(#71a876bcf7)"><path fill="#ffffff" d="M 313.738281 159.425781 C 311.1875 159.425781 309.113281 161.496094 309.113281 164.050781 L 309.113281 175.632812 C 309.113281 178.1875 311.1875 180.257812 313.738281 180.257812 C 316.292969 180.257812 318.363281 178.1875 318.363281 175.632812 L 318.363281 164.050781 C 318.363281 161.496094 316.292969 159.425781 313.738281 159.425781 " fill-opacity="1" fill-rule="nonzero"/></g><path fill="#ffffff" d="M 144.261719 180.257812 C 146.816406 180.257812 148.886719 178.1875 148.886719 175.632812 L 148.886719 164.050781 C 148.886719 161.496094 146.816406 159.425781 144.261719 159.425781 C 141.707031 159.425781 139.636719 161.496094 139.636719 164.050781 L 139.636719 175.632812 C 139.636719 178.1875 141.707031 180.257812 144.261719 180.257812 " fill-opacity="1" fill-rule="nonzero"/><path fill="#ffffff" d="M 125.765625 150.019531 C 123.210938 150.019531 121.140625 152.089844 121.140625 154.644531 L 121.140625 185.042969 C 121.140625 187.59375 123.210938 189.664062 125.765625 189.664062 C 128.320312 189.664062 130.390625 187.59375 130.390625 185.042969 L 130.390625 154.644531 C 130.390625 152.089844 128.320312 150.019531 125.765625 150.019531 " fill-opacity="1" fill-rule="nonzero"/><path fill="#ffffff" d="M 107.269531 129.949219 C 104.71875 129.949219 102.648438 132.019531 102.648438 134.574219 L 102.648438 205.109375 C 102.648438 207.664062 104.71875 209.734375 107.269531 209.734375 C 109.824219 209.734375 111.894531 207.664062 111.894531 205.109375 L 111.894531 134.574219 C 111.894531 132.019531 109.824219 129.949219 107.269531 129.949219 " fill-opacity="1" fill-rule="nonzero"/><path fill="#ffffff" d="M 88.773438 150.019531 C 86.222656 150.019531 84.152344 152.089844 84.152344 154.644531 L 84.152344 185.042969 C 84.152344 187.59375 86.222656 189.664062 88.773438 189.664062 C 91.328125 189.664062 93.398438 187.59375 93.398438 185.042969 L 93.398438 154.644531 C 93.398438 152.089844 91.328125 150.019531 88.773438 150.019531 " fill-opacity="1" fill-rule="nonzero"/><g clip-path="url(#b2368715bf)"><path fill="#ffffff" d="M 70.28125 159.425781 C 67.726562 159.425781 65.65625 161.496094 65.65625 164.050781 L 65.65625 175.632812 C 65.65625 178.1875 67.726562 180.257812 70.28125 180.257812 C 72.832031 180.257812 74.902344 178.1875 74.902344 175.632812 L 74.902344 164.050781 C 74.902344 161.496094 72.832031 159.425781 70.28125 159.425781 " fill-opacity="1" fill-rule="nonzero"/></g></svg>